<svg width="25" height="25" viewBox="0 0 25 25" fill="none" xmlns="http://www.w3.org/2000/svg">
<g id="SVG">
<path id="Vector" fill-rule="evenodd" clip-rule="evenodd" d="M7.88 6C5.64935 6 3.88 7.80906 3.88 10C3.88 10.9282 4.25684 11.9436 4.9287 13.0105C5.59692 14.0716 6.52148 15.1274 7.53127 16.1219C8.93769 17.507 10.4118 18.6879 11.5508 19.6003C11.8534 19.8427 12.1323 20.0661 12.38 20.2694C12.6277 20.0661 12.9066 19.8427 13.2092 19.6003C14.3482 18.6879 15.8223 17.507 17.2287 16.1219C18.2385 15.1274 19.1631 14.0716 19.8313 13.0105C20.5032 11.9436 20.88 10.9282 20.88 10C20.88 7.80898 19.1114 6 16.88 6C14.7273 6 13.4538 7.70226 13.1062 8.24742C12.7689 8.77655 11.9911 8.77653 11.6538 8.24742C11.3062 7.70225 10.0327 6 7.88 6ZM2.38 10C2.38 6.99094 4.81065 4.5 7.88 4.5C10.1114 4.5 11.6049 5.80207 12.38 6.71581C13.1551 5.80207 14.6486 4.5 16.88 4.5C19.9502 4.5 22.38 6.99102 22.38 10C22.38 11.3218 21.8506 12.6189 21.1006 13.8098C20.3469 15.0066 19.334 16.1539 18.2813 17.1906C16.8229 18.6269 15.188 19.9384 14.0302 20.8672C13.5449 21.2565 13.1434 21.5786 12.8739 21.8144C12.5911 22.0619 12.1689 22.0619 11.8861 21.8144C11.6166 21.5786 11.2151 21.2565 10.7298 20.8672C9.57202 19.9384 7.93712 18.6269 6.47873 17.1906C5.42602 16.1539 4.41308 15.0066 3.65942 13.8098C2.90941 12.6189 2.38 11.3218 2.38 10Z" fill="#141415"/>
</g>
</svg>
