<svg width="25" height="25" viewBox="0 0 25 25" fill="none" xmlns="http://www.w3.org/2000/svg">
<g id="SVG" opacity="0.87">
<path id="Vector" fill-rule="evenodd" clip-rule="evenodd" d="M9.42004 7C9.42004 5.38779 10.6602 4 12.42 4C14.1798 4 15.42 5.38779 15.42 7V8H9.42004V7ZM7.92004 9.5V12H9.42004V9.5H15.42V12H16.92V9.5H18.92V20.25C18.92 20.6642 18.5842 21 18.17 21H6.67004C6.25583 21 5.92004 20.6642 5.92004 20.25V9.5H7.92004ZM7.92004 8V7C7.92004 4.61221 9.77988 2.5 12.42 2.5C15.0602 2.5 16.92 4.61221 16.92 7V8H19.67H20.42V8.75V20.25C20.42 21.4926 19.4126 22.5 18.17 22.5H6.67004C5.4274 22.5 4.42004 21.4926 4.42004 20.25V8.75V8H5.17004H7.92004Z" fill="#141415"/>
</g>
</svg>
