<svg width="25" height="25" viewBox="0 0 25 25" fill="none" xmlns="http://www.w3.org/2000/svg">
<g id="SVG">
<path id="Vector" fill-rule="evenodd" clip-rule="evenodd" d="M16.19 11C16.19 13.7614 13.9514 16 11.19 16C8.42858 16 6.19 13.7614 6.19 11C6.19 8.23858 8.42858 6 11.19 6C13.9514 6 16.19 8.23858 16.19 11ZM15.0298 16.2451C13.954 17.0341 12.6264 17.5 11.19 17.5C7.60015 17.5 4.69 14.5899 4.69 11C4.69 7.41015 7.60015 4.5 11.19 4.5C14.7799 4.5 17.69 7.41015 17.69 11C17.69 12.4364 17.2241 13.764 16.4351 14.8398L20.399 18.8036C20.787 19.1917 20.787 19.8209 20.399 20.209C20.0109 20.597 19.3817 20.597 18.9936 20.209L15.0298 16.2451Z" fill="black"/>
</g>
</svg>
