<svg width="25" height="25" viewBox="0 0 25 25" fill="none" xmlns="http://www.w3.org/2000/svg">
<g id="SVG">
<path id="Vector" fill-rule="evenodd" clip-rule="evenodd" d="M12.31 3.5C10.1009 3.5 8.30999 5.29086 8.30999 7.5V8.5C8.30999 10.7091 10.1009 12.5 12.31 12.5C14.5191 12.5 16.31 10.7091 16.31 8.5V7.5C16.31 5.29086 14.5191 3.5 12.31 3.5ZM9.80999 7.5C9.80999 6.11929 10.9293 5 12.31 5C13.6907 5 14.81 6.11929 14.81 7.5V8.5C14.81 9.88071 13.6907 11 12.31 11C10.9293 11 9.80999 9.88071 9.80999 8.5V7.5ZM5.81231 19.8686C6.2832 16.7577 9.32802 15 12.3122 15C15.2958 15 18.341 16.7577 18.8119 19.8686C18.8146 19.8866 18.8125 19.8972 18.81 19.9048C18.807 19.9137 18.8003 19.9269 18.7859 19.942C18.7553 19.9741 18.6994 20.0039 18.6271 20.0039H5.99717C5.92486 20.0039 5.86897 19.9741 5.83837 19.942C5.82393 19.9269 5.81725 19.9137 5.81426 19.9048C5.81173 19.8972 5.8096 19.8865 5.81231 19.8686ZM12.3122 13.5C8.8832 13.5 4.95036 15.5404 4.32921 19.6441C4.16623 20.7208 5.06726 21.5039 5.99717 21.5039H18.6271C19.557 21.5039 20.458 20.7208 20.295 19.6441C19.6738 15.5404 15.7406 13.5 12.3122 13.5Z" fill="black"/>
</g>
</svg>
