<svg width="16" height="17" viewBox="0 0 16 17" fill="none" xmlns="http://www.w3.org/2000/svg">
<g id="SVG" opacity="0.87">
<path id="Vector" d="M8 11.1667C8.20713 11.1607 8.39653 11.0832 8.55047 10.9162L12.2987 7.03806C12.429 6.90686 12.5 6.73986 12.5 6.54305C12.5 6.14942 12.1922 5.83333 11.8016 5.83333C11.6122 5.83333 11.4287 5.91086 11.2925 6.04803L8.00593 9.46693L4.70744 6.04803C4.57131 5.91682 4.39374 5.83333 4.19842 5.83333C3.80778 5.83333 3.5 6.14942 3.5 6.54305C3.5 6.73986 3.57103 6.90686 3.70124 7.03806L7.45547 10.9162C7.61527 11.0832 7.79287 11.1667 8 11.1667Z" fill="#62656A"/>
</g>
</svg>
